<svg xmlns="http://www.w3.org/2000/svg" height="48" viewBox="0 96 960 960" width="48"><path d="M472 431.5v-122H349V252h123V130h57.5v122h122v57.5h-122v122H472ZM291.372 982q-29.135 0-49.753-20.747Q221 940.506 221 911.372q0-29.135 20.747-49.753Q262.494 841 291.628 841q29.135 0 49.753 20.747Q362 882.494 362 911.628q0 29.135-20.747 49.753Q320.506 982 291.372 982Zm400 0q-29.135 0-49.753-20.747Q621 940.506 621 911.372q0-29.135 20.747-49.753Q662.494 841 691.628 841q29.135 0 49.753 20.747Q762 882.494 762 911.628q0 29.135-20.747 49.753Q720.506 982 691.372 982ZM291.514 776.5q-48.014 0-70.014-38.5-22-38.5.5-79l58-105-143-306H56v-79.5h132.5L350.992 517H637.5L786 252l70.5 37-149 268.5q-10.862 18.167-27.732 29.083-16.87 10.917-41.911 10.917H348L292 697h481v79.5H291.514Z"/></svg>