<?xml version="1.0" encoding="UTF-8"?>
<svg id="Camada_2" data-name="Camada 2" xmlns="http://www.w3.org/2000/svg" viewBox="0 0 383.15 269.42">
  <defs>
    <style>
      .cls-1 {
        fill: #070707;
      }
    </style>
  </defs>
  <g id="Camada_1-2" data-name="Camada 1">
    <g>
      <path class="cls-1" d="M383.15,240.97c-.72,2.07-1.54,4.11-2.15,6.21-.79,2.7-1.5,3.44-3.92,.97-11.67-11.95-23.54-23.71-35.33-35.54-24.99-25.07-49.96-50.18-75.04-75.17-2.2-2.2-2.21-3.23,0-5.43,36.69-36.65,73.28-73.4,109.9-110.13,3.14-3.15,3.18-3.16,4.62,1.06,.71,2.07,1.29,4.18,1.93,6.27V240.97Z"/>
      <path class="cls-1" d="M19.93,3.33C23.6,1.14,27.5,.54,31.43,.11c1.23-.14,2.49-.09,3.74-.09C139.41,.01,243.65,.02,347.89,0c5.29,0,10.38,.72,15.79,3.41-5.39,5.28-10.58,10.28-15.67,15.37-48.87,49-97.72,98.02-146.59,147.02-5.87,5.89-13.74,5.92-19.56,.09C128.51,112.39,75.17,58.87,21.82,5.35c-.61-.61-1.17-1.26-1.89-2.02Z"/>
      <path class="cls-1" d="M19.54,265.96c5.03-4.92,9.88-9.57,14.62-14.32,32.68-32.75,65.37-65.48,97.93-98.35,2.45-2.48,3.54-2.11,5.7,.12,9.12,9.4,18.41,18.62,27.67,27.88,15.32,15.32,36.9,15.34,52.23,.03,9.53-9.52,19.04-19.05,28.49-28.65,1.48-1.51,2.29-1.96,4.06-.18,37.27,37.5,74.62,74.93,111.94,112.38,.34,.34,.61,.76,1.03,1.29-3.78,2.11-7.78,2.79-11.86,3.16-1.36,.12-2.74,.08-4.11,.08-103.75,0-207.51,0-311.26,.02-5.53,0-10.89-.56-16.44-3.46Z"/>
      <path class="cls-1" d="M.02,134.5c0-33.29,.02-66.58-.02-99.88,0-4.68,.89-9.13,2.58-13.47,.66-1.71,1.26-2.24,2.71-.65,1.76,1.94,3.67,3.73,5.52,5.59,35.21,35.32,70.41,70.66,105.7,105.9,2.21,2.21,2.18,3.24-.02,5.43C79.79,174.08,43.19,210.84,6.56,247.57q-3.14,3.14-4.63-1.09C.55,242.56,0,238.54,0,234.38c.04-33.29,.02-66.58,.02-99.88Z"/>
    </g>
  </g>
</svg>