<svg xmlns="http://www.w3.org/2000/svg" height="48" viewBox="0 96 960 960" width="48"><path d="M288.872 981q-29.135 0-49.753-20.747-20.619-20.747-20.619-49.881 0-29.135 20.747-49.753Q259.994 840 289.128 840q29.135 0 49.753 20.747 20.619 20.747 20.619 49.881 0 29.135-20.747 49.753Q318.006 981 288.872 981Zm395.5 0q-29.135 0-49.753-20.747Q614 939.506 614 910.372q0-29.135 20.747-49.753Q655.494 840 684.628 840q29.135 0 49.753 20.747Q755 881.494 755 910.628q0 29.135-20.747 49.753Q713.506 981 684.372 981ZM255 326.5l93 194h282.5l105-194H255ZM214.076 247h553.498q36.176 0 54.551 31.839Q840.5 310.677 823 343L707 553.5q-12.5 20.5-32.072 34-19.572 13.5-44.066 13.5H338l-49.5 94H766v79.5H279.189q-49.857 0-70.773-33.25Q187.5 708 210 669.235l61-111.448L126.191 248.5H45V169h132.5l36.576 78ZM348 520.5h282.5H348Z"/></svg>